<?xml version="1.0" encoding="UTF-8"?>
<svg id="Capa_6" data-name="Capa 6" xmlns="http://www.w3.org/2000/svg" viewBox="0 0 1500 1500">
  <defs>
    <style>
      .cls-1 {
        font-family: MinionConceptRoman-Bold, 'Minion Variable Concept';
        font-size: 180px;
        font-variation-settings: 'wght' 700, 'opsz' 11;
        font-weight: 700;
      }

      .cls-1, .cls-2, .cls-3 {
        stroke-width: 2px;
      }

      .cls-1, .cls-3 {
        fill: #fff;
        stroke: #6d3e90;
      }

      .cls-2 {
        fill: #6d3e90;
        stroke: #fff;
      }

      .cls-2, .cls-3 {
        stroke-miterlimit: 10;
      }

      .cls-4 {
        letter-spacing: -.03em;
      }

      .cls-5 {
        letter-spacing: 0em;
      }
    </style>
  </defs>
  <g>
    <path class="cls-3" d="M119.88,985.31l-37.82.02c-1.95,0-3.21-1.55-3.18-3.47l.13-139.75c-.34-28.84,21.22-45.81,48.73-45.81s48.98,17.75,48.98,45.81l.03,139.75c-.22,1.52-2.1,3.48-4.05,3.48l-36.82-.09c-1.59,0-3.3-1.47-3.33-3.31,0,0,.01-29.83,0-31.19l-9.62-.14v31.23c-.2,1.69-1.46,3.46-3.05,3.46ZM122.98,910.69l9.57-.04c.01-2.35-.08-32.07-.08-32.07-.17-11.01-.24-22.83-.06-31.53.06-2.65-2.09-4.87-4.68-4.93,0,0-4.74.24-4.74,5.02,0,9.36-.06,20.27-.06,31.95,0,0,.2,28.19.05,31.61Z"/>
    <path class="cls-3" d="M194.09,985.34c-1.77,0-4.23-1.59-4.35-3.48l.13-178.51c-.23-5.9,3.88-7.06,5.64-7.06h34.09c1.77,0,4.18.92,4.4,6.69v136.73c3.27,0,20.53.18,20.53.18,2.2-.18,3.77,2.38,3.77,4.24l.04,37.72c0,1.87-1.74,3.48-4.57,3.48h-59.69Z"/>
    <path class="cls-3" d="M319.89,800.35c.17-2.42,3.2-4.05,4.97-4.05h47.92c2.2,0,4.18,2.05,4.23,4.1l7.16,94.53c.79-8.21,8.87-94.57,8.87-94.57.28-2.12,2.11-4.05,3.61-4.05h50.29c1.77,0,4.46,2.16,4.44,4.05l12.87,180.96c.02,1.9-.85,3.8-3.5,3.8h-37.39c-1.77,0-3.16-1.9-3.13-3.8,0,0-3.39-106.37-3.16-113.24l-13.12,113.24c-.31,1.57-2,3.36-3.5,3.36l-30.01.43c-1.5,0-3.72-1.71-4.02-3.8l-9.41-81.25-3.98-32.91-2.98,114.14c.02,1.9-2.09,3.83-3.85,3.83h-36.32c-1.77,0-3.72-2.39-3.69-4.28l13.71-180.48Z"/>
    <path class="cls-3" d="M518.3,939.09h32.6c2.54,0,4.07,2.41,4.07,4.28l-.09,37.94c0,1.88-2.46,3.89-6.27,3.8l-71.76.07c-1.77,0-3.19-1.55-3.17-3.45l.19-15.85v-150.38l-.18-15.17c-.02-1.9,2.71-4.13,4.48-4.13h73.24c1.75,0,3.39,2.25,3.39,4.13l.09,38.09c0,1.88-1.55,4.55-3.3,4.55l-33.23.09c0,2.73-.13,19.56-.13,25h30.48c1.75,0,3.81,2.53,3.81,4.41v37.37c0,1.88-2.15,4.07-3.89,4.07l-30.14-.12c0,2.05-.17,25.28-.17,25.28Z"/>
    <path class="cls-3" d="M561.33,946.6c-.21-1.58.34-3.23.81-4.22.74-1.55,2.18-2.56,3.7-3.18,5.35-2.18,4.46-6.89,4.62-7.53l.04-108.33v-23.03c-.02-1.9,1.98-4,3.76-4h36.68c1.78,0,3.96,2.11,3.93,4v140.95c.18,7.52-5.41,26.25-12.5,32.86-4.44,4.14-8.04,7.48-17.28,10.28-5.11,1.55-14.24.71-14.24.71-2.52.02-3.16-.36-3.97-3.82l-5.56-34.69Z"/>
    <path class="cls-3" d="M638.22,974.85c-10.08-10.57-15.35-20.31-15.35-58.64v-39.11c0-38.59,3.6-56.11,13.68-66.68,7.56-7.66,20.14-14.2,37.78-14.2s28.83,4.71,36.39,12.38c10.08,10.57,15.45,29.91,15.45,68.5v39.11c0,38.32-5.5,48.06-15.58,58.64-7.56,7.93-18.63,10.49-36.26,10.49s-28.56-2.56-36.12-10.49ZM679.12,937.12v-92.37c0-.36-.99-4.39-4.71-4.39-4.28,0-4.86,3.93-4.86,4.39l.05,92.37c0,.59.44,4.39,4.36,4.39,4.3,0,5.16-3.58,5.16-4.39Z"/>
    <path class="cls-3" d="M778.1,920.57l.13,44.19.08,13.72c-.25,6.47-3.78,6.86-5.55,6.86h-35.18c-1.77,0-3.98-2.03-3.81-6.86l.08-14.63.08-161.47c-.23-3.15,2.19-6,3.95-6h49.71c42.37,0,44.89,26.25,44.56,60.51v.53c0,17.76,1.24,34.67-10.05,42.79-.96.69-3.27,2.3-6.32,3.52l5.11,5c2.19,2.37,4.24,5.14,5.33,8.27.88,2.52,2,5.95,2.12,7.41l3.73,54.07c.26,1.08,2.3,2.39,2.2,5.19-.07,1.92-3.54,1.67-4.57,1.67l-38.1.04c-2.88,0-4-4.54-4-6.91l-2.52-53.07c0-2.53-2.12-4.77-3.62-4.77,0,0-.7-.06-3.38-.06ZM778.1,880.22c1.12,0,3.15.04,5.5.04,1.18,0,4.01-2.36,4.01-4.21v-28.64c0-1.7-1.7-4.43-4.01-4.43,0,0-3.26.02-5.48.02l-.02,37.23Z"/>
    <path class="cls-3" d="M944,939.09h32.6c2.54,0,4.07,2.41,4.07,4.28l-.09,37.94c0,1.88-2.46,3.89-6.27,3.8l-71.76.07c-1.77,0-3.19-1.55-3.17-3.45l.19-15.85v-150.38l-.18-15.17c-.02-1.9,2.71-4.13,4.48-4.13h73.24c1.75,0,3.39,2.25,3.39,4.13l.09,38.09c0,1.88-1.55,4.55-3.3,4.55l-33.14.09c0,2.73,0,19.56,0,25h30.26c1.75,0,3.81,2.53,3.81,4.41v37.37c0,1.88-2.15,4.07-3.89,4.07l-30.14-.12c0,2.05-.17,25.28-.17,25.28Z"/>
    <path class="cls-3" d="M1028.71,922.99c1.99,0,4.66.98,4.66,4.91,0,2.02-.02,5.69-.02,9.22,0,2.97,2.58,4.63,4.7,4.63,2.63,0,4.48-2.86,4.57-4.63.35-6.86-3.05-10.65-11.18-21.2l-13.89-15.46c-15.58-15.09-28.78-40.08-28.62-56.73.34-35.46,19.46-47.63,48.09-47.37,28.67.26,48.85,12.09,47.31,57.73-.07,1.99-2.29,3.55-4.15,3.55l-36.67.05c-1.24,0-3.37-1.79-3.37-3.96,0-1.14.08-7.57.08-8.59,0-3.64-1.68-4.94-3.59-4.94-3.09,0-3.29,3.86-3.27,5.13.11,8.19,4.74,11.96,7.62,17.77l18.29,20.73c21.3,17.71,28.43,32.96,28.24,50.93-.39,37.15-21.07,51.13-51.3,50.6-31.37-.51-50.35-24.72-47.29-57.73.18-1.96,1.81-4.59,3.64-4.59l36.13-.05Z"/>
    <path class="cls-3" d="M1156.47,842.98v138.49c.02,1.9-2.13,3.88-3.89,3.88h-36.12c-1.77,0-4.37-1.99-4.35-3.88v-15.28l.04-123.26c-1.69,0-15.79.09-15.79.09-1.75,0-3.6-2.17-3.6-4.05v-38.08c0-4.21,1.27-4.53,4.15-4.53h77.15c1.75,0,1.84,2.31,1.84,4.55v38.64c0,1.88-1.64,3.41-3.39,3.41,0,0-12.83.01-16.05.01Z"/>
    <path class="cls-3" d="M1226.72,796.39c2.71,0,4.18,2,4.05,6.73v12.33l.08,150.5.21,15.52c.02,1.9-3.3,3.88-5.07,3.88h-35.27c-1.77,0-4.1-1.99-4.08-3.88v-15.79l-.03-149.81v-14.97c.01-2.93-.39-4.51,3.52-4.51h36.57Z"/>
    <path class="cls-3" d="M1248.24,985.36c-1.77,0-4.23-1.59-4.35-3.48l.13-178.59c-.23-5.9,3.88-7.06,5.64-7.06h34.09c1.77,0,4.18.92,4.4,6.7v136.79c3.27,0,20.53.18,20.53.18,2.2-.18,3.77,2.38,3.77,4.24l.04,37.74c0,1.87-1.74,3.48-4.57,3.48h-59.69Z"/>
    <path class="cls-3" d="M1333.16,974.85c-10.08-10.57-15.35-20.31-15.35-58.64v-39.11c0-38.59,3.6-56.11,13.68-66.68,7.56-7.66,20.14-14.2,37.78-14.2s28.83,4.71,36.39,12.38c10.08,10.57,15.45,29.91,15.45,68.5v39.11c0,38.32-5.5,48.06-15.58,58.64-7.56,7.93-18.63,10.49-36.26,10.49s-28.56-2.56-36.12-10.49ZM1374.07,937.12v-92.37c0-.36-.99-4.39-4.71-4.39-4.28,0-4.86,3.93-4.86,4.39l.05,92.37c0,.59.44,4.39,4.36,4.39,4.3,0,5.16-3.58,5.16-4.39Z"/>
  </g>
  <g>
    <rect class="cls-3" x="1200.15" y="451.53" width="38.88" height="252.2" rx="1.87" ry="1.87"/>
    <rect class="cls-3" x="1133.07" y="491.26" width="38.88" height="172.29" rx="1.87" ry="1.87"/>
    <rect class="cls-3" x="1065.98" y="530.54" width="38.88" height="93.59" rx="1.87" ry="1.87"/>
    <rect class="cls-3" x="998.9" y="488.23" width="38.88" height="178.19" rx="1.87" ry="1.87"/>
    <rect class="cls-3" x="931.81" y="457.82" width="38.88" height="239.05" rx="1.87" ry="1.87"/>
    <rect class="cls-3" x="864.73" y="402.44" width="38.88" height="349.82" rx="1.87" ry="1.87"/>
    <rect id="Purple" class="cls-2" x="797.64" y="339.83" width="38.88" height="475.87" rx="1.87" ry="1.87"/>
    <rect class="cls-3" x="730.56" y="354.78" width="38.88" height="419.99" rx="1.87" ry="1.87"/>
    <rect class="cls-3" x="663.47" y="451.06" width="38.88" height="252.39" rx="1.87" ry="1.87"/>
    <rect class="cls-3" x="596.39" y="490.88" width="38.88" height="172.79" rx="1.87" ry="1.87"/>
    <rect class="cls-3" x="529.3" y="460.61" width="38.88" height="232.65" rx="1.87" ry="1.87"/>
    <rect class="cls-3" x="462.22" y="421.78" width="38.88" height="311.46" rx="1.87" ry="1.87"/>
    <rect class="cls-3" x="395.14" y="480.52" width="38.88" height="193.49" rx="1.87" ry="1.87"/>
    <rect class="cls-3" x="328.05" y="441.99" width="38.88" height="271.45" rx="1.87" ry="1.87"/>
    <rect class="cls-3" x="260.97" y="509.94" width="38.88" height="134.75" rx="1.87" ry="1.87"/>
  </g>
  <text class="cls-1" transform="translate(520.86 1114.89)"><tspan class="cls-4" x="0" y="0">M</tspan><tspan x="156.6" y="0">us</tspan><tspan class="cls-5" x="326.52" y="0">i</tspan><tspan x="380.7" y="0">c</tspan></text>
</svg>